<?xml version="1.0" encoding="UTF-8" standalone="no"?><svg xmlns="http://www.w3.org/2000/svg" xmlns:xlink="http://www.w3.org/1999/xlink" contentScriptType="application/ecmascript" contentStyleType="text/css" height="342px" preserveAspectRatio="none" style="width:582px;height:342px;" version="1.1" viewBox="0 0 582 342" width="582px" zoomAndPan="magnify"><defs><filter height="300%" id="f1cumgb29s0xxr" width="300%" x="-1" y="-1"><feGaussianBlur result="blurOut" stdDeviation="2.0"/><feColorMatrix in="blurOut" result="blurOut2" type="matrix" values="0 0 0 0 0 0 0 0 0 0 0 0 0 0 0 0 0 0 .4 0"/><feOffset dx="4.0" dy="4.0" in="blurOut2" result="blurOut3"/><feBlend in="SourceGraphic" in2="blurOut3" mode="normal"/></filter></defs><g><text fill="#000000" font-family="sans-serif" font-size="18" lengthAdjust="spacingAndGlyphs" textLength="108" x="240.5" y="18.9492">组件结构概况</text><!--class ComponentTrait--><rect fill="#FEFECE" filter="url(#f1cumgb29s0xxr)" height="48" id="ComponentTrait" style="stroke: #A80036; stroke-width: 1.5;" width="112" x="171.5" y="32.293"/><ellipse cx="186.5" cy="48.293" fill="#FF0000" rx="11" ry="11" style="stroke: #A80036; stroke-width: 1.0;"/><path d="M185.5469,54.7461 L185.5469,43.5273 L182.9375,43.5273 L182.9375,41.6367 L190.2656,41.6367 L190.2656,43.5273 L187.6406,43.5273 L187.6406,54.7461 L185.5469,54.7461 Z "/><text fill="#000000" font-family="sans-serif" font-size="12" lengthAdjust="spacingAndGlyphs" textLength="80" x="200.5" y="52.8281">ComponentTrait</text><line style="stroke: #A80036; stroke-width: 1.5;" x1="172.5" x2="282.5" y1="64.293" y2="64.293"/><line style="stroke: #A80036; stroke-width: 1.5;" x1="172.5" x2="282.5" y1="72.293" y2="72.293"/><!--class Component--><rect fill="#FEFECE" filter="url(#f1cumgb29s0xxr)" height="62.8457" id="Component" style="stroke: #A80036; stroke-width: 1.5;" width="89" x="246" y="159.293"/><ellipse cx="261" cy="175.293" fill="#ADD1B2" rx="11" ry="11" style="stroke: #A80036; stroke-width: 1.0;"/><path d="M256.9375,175.4336 Q256.9375,171.9805 258.0391,170.3477 Q259.1406,168.7148 261.3594,168.7148 Q262.5625,168.7148 263.8281,169.3711 L263.8281,171.418 Q262.375,170.6367 261.4375,170.6367 Q258.9844,170.6367 258.9844,175.4336 Q258.9844,178.1367 259.6172,179.1914 Q260.25,180.2461 261.4375,180.2461 Q262.4063,180.2461 263.9063,179.3242 L263.9063,181.5273 Q262.6406,182.1523 261.3594,182.1523 Q259.0938,182.1523 258.0156,180.5742 Q256.9375,178.9961 256.9375,175.4336 Z "/><text fill="#000000" font-family="sans-serif" font-size="12" lengthAdjust="spacingAndGlyphs" textLength="57" x="275" y="179.8281">Component</text><line style="stroke: #A80036; stroke-width: 1.5;" x1="247" x2="334" y1="191.293" y2="191.293"/><polygon fill="none" points="257,199.2158,261,203.2158,257,207.2158,253,203.2158" style="stroke: #B38D22; stroke-width: 1.0;"/><text fill="#000000" font-family="sans-serif" font-size="11" lengthAdjust="spacingAndGlyphs" textLength="20" x="266" y="206.873">_ctx</text><line style="stroke: #A80036; stroke-width: 1.5;" x1="247" x2="334" y1="214.1387" y2="214.1387"/><!--class Context--><rect fill="#FEFECE" filter="url(#f1cumgb29s0xxr)" height="48" id="Context" style="stroke: #A80036; stroke-width: 1.5;" width="70" x="318.5" y="32.293"/><ellipse cx="333.5" cy="48.293" fill="#ADD1B2" rx="11" ry="11" style="stroke: #A80036; stroke-width: 1.0;"/><path d="M329.4375,48.4336 Q329.4375,44.9805 330.5391,43.3477 Q331.6406,41.7148 333.8594,41.7148 Q335.0625,41.7148 336.3281,42.3711 L336.3281,44.418 Q334.875,43.6367 333.9375,43.6367 Q331.4844,43.6367 331.4844,48.4336 Q331.4844,51.1367 332.1172,52.1914 Q332.75,53.2461 333.9375,53.2461 Q334.9063,53.2461 336.4063,52.3242 L336.4063,54.5273 Q335.1406,55.1523 333.8594,55.1523 Q331.5938,55.1523 330.5156,53.5742 Q329.4375,51.9961 329.4375,48.4336 Z "/><text fill="#000000" font-family="sans-serif" font-size="12" lengthAdjust="spacingAndGlyphs" textLength="38" x="347.5" y="52.8281">Context</text><line style="stroke: #A80036; stroke-width: 1.5;" x1="319.5" x2="387.5" y1="64.293" y2="64.293"/><line style="stroke: #A80036; stroke-width: 1.5;" x1="319.5" x2="387.5" y1="72.293" y2="72.293"/><!--class Controller--><rect fill="#FEFECE" filter="url(#f1cumgb29s0xxr)" height="48" id="Controller" style="stroke: #A80036; stroke-width: 1.5;" width="81" x="6" y="283.293"/><ellipse cx="21" cy="299.293" fill="#ADD1B2" rx="11" ry="11" style="stroke: #A80036; stroke-width: 1.0;"/><path d="M16.9375,299.4336 Q16.9375,295.9805 18.0391,294.3477 Q19.1406,292.7148 21.3594,292.7148 Q22.5625,292.7148 23.8281,293.3711 L23.8281,295.418 Q22.375,294.6367 21.4375,294.6367 Q18.9844,294.6367 18.9844,299.4336 Q18.9844,302.1367 19.6172,303.1914 Q20.25,304.2461 21.4375,304.2461 Q22.4063,304.2461 23.9063,303.3242 L23.9063,305.5273 Q22.6406,306.1523 21.3594,306.1523 Q19.0938,306.1523 18.0156,304.5742 Q16.9375,302.9961 16.9375,299.4336 Z "/><text fill="#000000" font-family="sans-serif" font-size="12" lengthAdjust="spacingAndGlyphs" textLength="49" x="35" y="303.8281">Controller</text><line style="stroke: #A80036; stroke-width: 1.5;" x1="7" x2="86" y1="315.293" y2="315.293"/><line style="stroke: #A80036; stroke-width: 1.5;" x1="7" x2="86" y1="323.293" y2="323.293"/><!--class Table--><rect fill="#FEFECE" filter="url(#f1cumgb29s0xxr)" height="48" id="Table" style="stroke: #A80036; stroke-width: 1.5;" width="59" x="122" y="283.293"/><ellipse cx="137" cy="299.293" fill="#ADD1B2" rx="11" ry="11" style="stroke: #A80036; stroke-width: 1.0;"/><path d="M132.9375,299.4336 Q132.9375,295.9805 134.0391,294.3477 Q135.1406,292.7148 137.3594,292.7148 Q138.5625,292.7148 139.8281,293.3711 L139.8281,295.418 Q138.375,294.6367 137.4375,294.6367 Q134.9844,294.6367 134.9844,299.4336 Q134.9844,302.1367 135.6172,303.1914 Q136.25,304.2461 137.4375,304.2461 Q138.4063,304.2461 139.9063,303.3242 L139.9063,305.5273 Q138.6406,306.1523 137.3594,306.1523 Q135.0938,306.1523 134.0156,304.5742 Q132.9375,302.9961 132.9375,299.4336 Z "/><text fill="#000000" font-family="sans-serif" font-size="12" lengthAdjust="spacingAndGlyphs" textLength="27" x="151" y="303.8281">Table</text><line style="stroke: #A80036; stroke-width: 1.5;" x1="123" x2="180" y1="315.293" y2="315.293"/><line style="stroke: #A80036; stroke-width: 1.5;" x1="123" x2="180" y1="323.293" y2="323.293"/><!--class Row--><rect fill="#FEFECE" filter="url(#f1cumgb29s0xxr)" height="48" id="Row" style="stroke: #A80036; stroke-width: 1.5;" width="53" x="216" y="283.293"/><ellipse cx="231" cy="299.293" fill="#ADD1B2" rx="11" ry="11" style="stroke: #A80036; stroke-width: 1.0;"/><path d="M226.9375,299.4336 Q226.9375,295.9805 228.0391,294.3477 Q229.1406,292.7148 231.3594,292.7148 Q232.5625,292.7148 233.8281,293.3711 L233.8281,295.418 Q232.375,294.6367 231.4375,294.6367 Q228.9844,294.6367 228.9844,299.4336 Q228.9844,302.1367 229.6172,303.1914 Q230.25,304.2461 231.4375,304.2461 Q232.4063,304.2461 233.9063,303.3242 L233.9063,305.5273 Q232.6406,306.1523 231.3594,306.1523 Q229.0938,306.1523 228.0156,304.5742 Q226.9375,302.9961 226.9375,299.4336 Z "/><text fill="#000000" font-family="sans-serif" font-size="12" lengthAdjust="spacingAndGlyphs" textLength="21" x="245" y="303.8281">Row</text><line style="stroke: #A80036; stroke-width: 1.5;" x1="217" x2="268" y1="315.293" y2="315.293"/><line style="stroke: #A80036; stroke-width: 1.5;" x1="217" x2="268" y1="323.293" y2="323.293"/><!--class Service--><rect fill="#FEFECE" filter="url(#f1cumgb29s0xxr)" height="48" id="Service" style="stroke: #A80036; stroke-width: 1.5;" width="69" x="304" y="283.293"/><ellipse cx="319" cy="299.293" fill="#ADD1B2" rx="11" ry="11" style="stroke: #A80036; stroke-width: 1.0;"/><path d="M314.9375,299.4336 Q314.9375,295.9805 316.0391,294.3477 Q317.1406,292.7148 319.3594,292.7148 Q320.5625,292.7148 321.8281,293.3711 L321.8281,295.418 Q320.375,294.6367 319.4375,294.6367 Q316.9844,294.6367 316.9844,299.4336 Q316.9844,302.1367 317.6172,303.1914 Q318.25,304.2461 319.4375,304.2461 Q320.4063,304.2461 321.9063,303.3242 L321.9063,305.5273 Q320.6406,306.1523 319.3594,306.1523 Q317.0938,306.1523 316.0156,304.5742 Q314.9375,302.9961 314.9375,299.4336 Z "/><text fill="#000000" font-family="sans-serif" font-size="12" lengthAdjust="spacingAndGlyphs" textLength="37" x="333" y="303.8281">Service</text><line style="stroke: #A80036; stroke-width: 1.5;" x1="305" x2="372" y1="315.293" y2="315.293"/><line style="stroke: #A80036; stroke-width: 1.5;" x1="305" x2="372" y1="323.293" y2="323.293"/><!--class Helper--><rect fill="#FEFECE" filter="url(#f1cumgb29s0xxr)" height="48" id="Helper" style="stroke: #A80036; stroke-width: 1.5;" width="65" x="408" y="283.293"/><ellipse cx="423" cy="299.293" fill="#ADD1B2" rx="11" ry="11" style="stroke: #A80036; stroke-width: 1.0;"/><path d="M418.9375,299.4336 Q418.9375,295.9805 420.0391,294.3477 Q421.1406,292.7148 423.3594,292.7148 Q424.5625,292.7148 425.8281,293.3711 L425.8281,295.418 Q424.375,294.6367 423.4375,294.6367 Q420.9844,294.6367 420.9844,299.4336 Q420.9844,302.1367 421.6172,303.1914 Q422.25,304.2461 423.4375,304.2461 Q424.4063,304.2461 425.9063,303.3242 L425.9063,305.5273 Q424.6406,306.1523 423.3594,306.1523 Q421.0938,306.1523 420.0156,304.5742 Q418.9375,302.9961 418.9375,299.4336 Z "/><text fill="#000000" font-family="sans-serif" font-size="12" lengthAdjust="spacingAndGlyphs" textLength="33" x="437" y="303.8281">Helper</text><line style="stroke: #A80036; stroke-width: 1.5;" x1="409" x2="472" y1="315.293" y2="315.293"/><line style="stroke: #A80036; stroke-width: 1.5;" x1="409" x2="472" y1="323.293" y2="323.293"/><!--class Cache--><rect fill="#FEFECE" filter="url(#f1cumgb29s0xxr)" height="48" id="Cache" style="stroke: #A80036; stroke-width: 1.5;" width="63" x="508" y="283.293"/><ellipse cx="523" cy="299.293" fill="#ADD1B2" rx="11" ry="11" style="stroke: #A80036; stroke-width: 1.0;"/><path d="M518.9375,299.4336 Q518.9375,295.9805 520.0391,294.3477 Q521.1406,292.7148 523.3594,292.7148 Q524.5625,292.7148 525.8281,293.3711 L525.8281,295.418 Q524.375,294.6367 523.4375,294.6367 Q520.9844,294.6367 520.9844,299.4336 Q520.9844,302.1367 521.6172,303.1914 Q522.25,304.2461 523.4375,304.2461 Q524.4063,304.2461 525.9063,303.3242 L525.9063,305.5273 Q524.6406,306.1523 523.3594,306.1523 Q521.0938,306.1523 520.0156,304.5742 Q518.9375,302.9961 518.9375,299.4336 Z "/><text fill="#000000" font-family="sans-serif" font-size="12" lengthAdjust="spacingAndGlyphs" textLength="31" x="537" y="303.8281">Cache</text><line style="stroke: #A80036; stroke-width: 1.5;" x1="509" x2="570" y1="315.293" y2="315.293"/><line style="stroke: #A80036; stroke-width: 1.5;" x1="509" x2="570" y1="323.293" y2="323.293"/><!--link ComponentTrait to Component--><path d="M247.084,98.482 C256.384,118.041 267.309,141.018 275.873,159.031 " fill="none" id="ComponentTrait-Component" style="stroke: #A80036; stroke-width: 1.0;"/><polygon fill="none" points="240.74,101.441,238.474,80.373,253.384,95.429,240.74,101.441" style="stroke: #A80036; stroke-width: 1.0;"/><text fill="#000000" font-family="sans-serif" font-size="13" lengthAdjust="spacingAndGlyphs" textLength="25" x="262.5" y="124.9785">Trait</text><!--link Context to Component--><path d="M342.526,80.373 C332.162,102.171 316.546,135.014 305.127,159.031 " fill="none" id="Context-Component" style="stroke: #A80036; stroke-width: 1.0; stroke-dasharray: 7.0,7.0;"/><!--link Component to Controller--><path d="M227.444,221.383 C183.283,242.1058 125.559,269.1935 87.3186,287.1384 " fill="none" id="Component-Controller" style="stroke: #A80036; stroke-width: 1.0;"/><polygon fill="none" points="224.667,214.953,245.747,212.794,230.615,227.627,224.667,214.953" style="stroke: #A80036; stroke-width: 1.0;"/><!--link Component to Table--><path d="M237.614,235.3572 C217.875,251.6176 196.235,269.4426 179.587,283.1567 " fill="none" id="Component-Table" style="stroke: #A80036; stroke-width: 1.0;"/><polygon fill="none" points="233.363,229.79,253.251,222.477,242.264,240.596,233.363,229.79" style="stroke: #A80036; stroke-width: 1.0;"/><!--link Component to Row--><path d="M269.875,240.9921 C263.733,255.6431 257.29,271.0119 252.199,283.1567 " fill="none" id="Component-Row" style="stroke: #A80036; stroke-width: 1.0;"/><polygon fill="none" points="263.449,238.2154,277.637,222.477,276.36,243.6281,263.449,238.2154" style="stroke: #A80036; stroke-width: 1.0;"/><!--link Component to Service--><path d="M311.125,240.9921 C317.267,255.6431 323.71,271.0119 328.801,283.1567 " fill="none" id="Component-Service" style="stroke: #A80036; stroke-width: 1.0;"/><polygon fill="none" points="304.64,243.6281,303.363,222.477,317.551,238.2154,304.64,243.6281" style="stroke: #A80036; stroke-width: 1.0;"/><!--link Component to Helper--><path d="M346.619,234.6302 C368.175,251.0846 391.956,269.2379 410.19,283.1567 " fill="none" id="Component-Helper" style="stroke: #A80036; stroke-width: 1.0;"/><polygon fill="none" points="342.348,240.1764,330.697,222.477,350.842,229.048,342.348,240.1764" style="stroke: #A80036; stroke-width: 1.0;"/><!--link Component to Cache--><path d="M353.319,220.342 C392.756,238.3122 444.651,262.0451 490.5,283.293 C496.127,285.9009 502.11,288.6929 507.891,291.4006 " fill="none" id="Component-Cache" style="stroke: #A80036; stroke-width: 1.0;"/><polygon fill="none" points="350.342,226.679,335.041,212.02,356.144,213.937,350.342,226.679" style="stroke: #A80036; stroke-width: 1.0;"/><!--
@startuml
title 组件结构概况

class ComponentTrait << (T, #ff0000) >> {
}

ComponentTrait <|- - Component : Trait
class Component {
    #_ctx
}

Context .. Component

Component <|- - Controller
Component <|- - Table
Component <|- - Row
Component <|- - Service
Component <|- - Helper
Component <|- - Cache

@enduml

PlantUML version 1.2018.02(Sat Mar 10 01:20:44 CST 2018)
(GPL source distribution)
Java Runtime: OpenJDK Runtime Environment
JVM: OpenJDK 64-Bit Server VM
Java Version: 1.8.0_162-8u162-b12-1~deb9u1-b12
Operating System: Linux
OS Version: 4.9.0-6-amd64
Default Encoding: UTF-8
Language: zh
Country: CN
--></g></svg>