<?xml version="1.0" encoding="UTF-8" standalone="no"?><svg xmlns="http://www.w3.org/2000/svg" xmlns:xlink="http://www.w3.org/1999/xlink" contentScriptType="application/ecmascript" contentStyleType="text/css" height="268px" preserveAspectRatio="none" style="width:445px;height:268px;" version="1.1" viewBox="0 0 445 268" width="445px" zoomAndPan="magnify"><defs><filter height="300%" id="fv00zzvyq8415" width="300%" x="-1" y="-1"><feGaussianBlur result="blurOut" stdDeviation="2.0"/><feColorMatrix in="blurOut" result="blurOut2" type="matrix" values="0 0 0 0 0 0 0 0 0 0 0 0 0 0 0 0 0 0 .4 0"/><feOffset dx="4.0" dy="4.0" in="blurOut2" result="blurOut3"/><feBlend in="SourceGraphic" in2="blurOut3" mode="normal"/></filter></defs><g><text fill="#000000" font-family="sans-serif" font-size="18" lengthAdjust="spacingAndGlyphs" textLength="115" x="169" y="18.9492">Table组件概况</text><!--cluster User.Table--><polygon fill="#FFFFFF" filter="url(#fv00zzvyq8415)" points="22,155.293,104,155.293,111,180.1875,322,180.1875,322,256.293,22,256.293,22,155.293" style="stroke: #000000; stroke-width: 1.5;"/><line style="stroke: #000000; stroke-width: 1.5;" x1="22" x2="111" y1="180.1875" y2="180.1875"/><text fill="#000000" font-family="sans-serif" font-size="14" font-weight="bold" lengthAdjust="spacingAndGlyphs" textLength="76" x="26" y="172.0313">User.Table</text><!--class User.Table.Table1--><rect fill="#FEFECE" filter="url(#fv00zzvyq8415)" height="48" id="User.Table.Table1" style="stroke: #A80036; stroke-width: 1.5;" width="66" x="38" y="192.293"/><ellipse cx="53" cy="208.293" fill="#ADD1B2" rx="11" ry="11" style="stroke: #A80036; stroke-width: 1.0;"/><path d="M48.9375,208.4336 Q48.9375,204.9805 50.0391,203.3477 Q51.1406,201.7148 53.3594,201.7148 Q54.5625,201.7148 55.8281,202.3711 L55.8281,204.418 Q54.375,203.6367 53.4375,203.6367 Q50.9844,203.6367 50.9844,208.4336 Q50.9844,211.1367 51.6172,212.1914 Q52.25,213.2461 53.4375,213.2461 Q54.4063,213.2461 55.9063,212.3242 L55.9063,214.5273 Q54.6406,215.1523 53.3594,215.1523 Q51.0938,215.1523 50.0156,213.5742 Q48.9375,211.9961 48.9375,208.4336 Z "/><text fill="#000000" font-family="sans-serif" font-size="12" lengthAdjust="spacingAndGlyphs" textLength="34" x="67" y="212.8281">Table1</text><line style="stroke: #A80036; stroke-width: 1.5;" x1="39" x2="103" y1="224.293" y2="224.293"/><line style="stroke: #A80036; stroke-width: 1.5;" x1="39" x2="103" y1="232.293" y2="232.293"/><!--class User.Table.Table2--><rect fill="#FEFECE" filter="url(#fv00zzvyq8415)" height="48" id="User.Table.Table2" style="stroke: #A80036; stroke-width: 1.5;" width="66" x="139" y="192.293"/><ellipse cx="154" cy="208.293" fill="#ADD1B2" rx="11" ry="11" style="stroke: #A80036; stroke-width: 1.0;"/><path d="M149.9375,208.4336 Q149.9375,204.9805 151.0391,203.3477 Q152.1406,201.7148 154.3594,201.7148 Q155.5625,201.7148 156.8281,202.3711 L156.8281,204.418 Q155.375,203.6367 154.4375,203.6367 Q151.9844,203.6367 151.9844,208.4336 Q151.9844,211.1367 152.6172,212.1914 Q153.25,213.2461 154.4375,213.2461 Q155.4063,213.2461 156.9063,212.3242 L156.9063,214.5273 Q155.6406,215.1523 154.3594,215.1523 Q152.0938,215.1523 151.0156,213.5742 Q149.9375,211.9961 149.9375,208.4336 Z "/><text fill="#000000" font-family="sans-serif" font-size="12" lengthAdjust="spacingAndGlyphs" textLength="34" x="168" y="212.8281">Table2</text><line style="stroke: #A80036; stroke-width: 1.5;" x1="140" x2="204" y1="224.293" y2="224.293"/><line style="stroke: #A80036; stroke-width: 1.5;" x1="140" x2="204" y1="232.293" y2="232.293"/><!--class User.Table.Table3--><rect fill="#FEFECE" filter="url(#fv00zzvyq8415)" height="48" id="User.Table.Table3" style="stroke: #A80036; stroke-width: 1.5;" width="66" x="240" y="192.293"/><ellipse cx="255" cy="208.293" fill="#ADD1B2" rx="11" ry="11" style="stroke: #A80036; stroke-width: 1.0;"/><path d="M250.9375,208.4336 Q250.9375,204.9805 252.0391,203.3477 Q253.1406,201.7148 255.3594,201.7148 Q256.5625,201.7148 257.8281,202.3711 L257.8281,204.418 Q256.375,203.6367 255.4375,203.6367 Q252.9844,203.6367 252.9844,208.4336 Q252.9844,211.1367 253.6172,212.1914 Q254.25,213.2461 255.4375,213.2461 Q256.4063,213.2461 257.9063,212.3242 L257.9063,214.5273 Q256.6406,215.1523 255.3594,215.1523 Q253.0938,215.1523 252.0156,213.5742 Q250.9375,211.9961 250.9375,208.4336 Z "/><text fill="#000000" font-family="sans-serif" font-size="12" lengthAdjust="spacingAndGlyphs" textLength="34" x="269" y="212.8281">Table3</text><line style="stroke: #A80036; stroke-width: 1.5;" x1="241" x2="305" y1="224.293" y2="224.293"/><line style="stroke: #A80036; stroke-width: 1.5;" x1="241" x2="305" y1="232.293" y2="232.293"/><!--class Table--><rect fill="#FEFECE" filter="url(#fv00zzvyq8415)" height="48" id="Table" style="stroke: #A80036; stroke-width: 1.5;" width="59" x="29.5" y="37.293"/><ellipse cx="44.5" cy="53.293" fill="#ADD1B2" rx="11" ry="11" style="stroke: #A80036; stroke-width: 1.0;"/><path d="M40.4375,53.4336 Q40.4375,49.9805 41.5391,48.3477 Q42.6406,46.7148 44.8594,46.7148 Q46.0625,46.7148 47.3281,47.3711 L47.3281,49.418 Q45.875,48.6367 44.9375,48.6367 Q42.4844,48.6367 42.4844,53.4336 Q42.4844,56.1367 43.1172,57.1914 Q43.75,58.2461 44.9375,58.2461 Q45.9063,58.2461 47.4063,57.3242 L47.4063,59.5273 Q46.1406,60.1523 44.8594,60.1523 Q42.5938,60.1523 41.5156,58.5742 Q40.4375,56.9961 40.4375,53.4336 Z "/><text fill="#000000" font-family="sans-serif" font-size="12" lengthAdjust="spacingAndGlyphs" textLength="27" x="58.5" y="57.8281">Table</text><line style="stroke: #A80036; stroke-width: 1.5;" x1="30.5" x2="87.5" y1="69.293" y2="69.293"/><line style="stroke: #A80036; stroke-width: 1.5;" x1="30.5" x2="87.5" y1="77.293" y2="77.293"/><!--class TableSplit--><rect fill="#FEFECE" filter="url(#fv00zzvyq8415)" height="48" id="TableSplit" style="stroke: #A80036; stroke-width: 1.5;" width="164" x="124" y="37.293"/><ellipse cx="139" cy="53.293" fill="#ADD1B2" rx="11" ry="11" style="stroke: #A80036; stroke-width: 1.0;"/><path d="M134.9375,53.4336 Q134.9375,49.9805 136.0391,48.3477 Q137.1406,46.7148 139.3594,46.7148 Q140.5625,46.7148 141.8281,47.3711 L141.8281,49.418 Q140.375,48.6367 139.4375,48.6367 Q136.9844,48.6367 136.9844,53.4336 Q136.9844,56.1367 137.6172,57.1914 Q138.25,58.2461 139.4375,58.2461 Q140.4063,58.2461 141.9063,57.3242 L141.9063,59.5273 Q140.6406,60.1523 139.3594,60.1523 Q137.0938,60.1523 136.0156,58.5742 Q134.9375,56.9961 134.9375,53.4336 Z "/><text fill="#000000" font-family="sans-serif" font-size="12" lengthAdjust="spacingAndGlyphs" textLength="50" x="153" y="57.8281">TableSplit</text><rect fill="#FFFFFF" height="18.1953" style="stroke: #000000; stroke-width: 1.0; stroke-dasharray: 2.0,2.0;" width="80" x="211" y="34.293"/><text fill="#000000" font-family="sans-serif" font-size="12" font-style="italic" lengthAdjust="spacingAndGlyphs" textLength="70" x="216" y="47.9258">extends Table</text><line style="stroke: #A80036; stroke-width: 1.5;" x1="125" x2="287" y1="69.293" y2="69.293"/><line style="stroke: #A80036; stroke-width: 1.5;" x1="125" x2="287" y1="77.293" y2="77.293"/><!--class TableRowCache--><rect fill="#FEFECE" filter="url(#fv00zzvyq8415)" height="58.3906" id="TableRowCache" style="stroke: #A80036; stroke-width: 1.5;" width="111" x="323.5" y="32.293"/><ellipse cx="338.5" cy="53.4883" fill="#FF0000" rx="11" ry="11" style="stroke: #A80036; stroke-width: 1.0;"/><path d="M337.5469,59.9414 L337.5469,48.7227 L334.9375,48.7227 L334.9375,46.832 L342.2656,46.832 L342.2656,48.7227 L339.6406,48.7227 L339.6406,59.9414 L337.5469,59.9414 Z "/><text fill="#000000" font-family="sans-serif" font-size="12" font-style="italic" lengthAdjust="spacingAndGlyphs" textLength="33" x="375.5" y="49.9258">«Trait»</text><text fill="#000000" font-family="sans-serif" font-size="12" lengthAdjust="spacingAndGlyphs" textLength="79" x="352.5" y="66.1211">TableRowCache</text><line style="stroke: #A80036; stroke-width: 1.5;" x1="324.5" x2="433.5" y1="74.6836" y2="74.6836"/><line style="stroke: #A80036; stroke-width: 1.5;" x1="324.5" x2="433.5" y1="82.6836" y2="82.6836"/><!--link TableSplit to User.Table.Table3--><path d="M224.244,103.955 C236.613,132.201 252.51,168.503 262.728,191.8369 " fill="none" id="TableSplit-User.Table.Table3" style="stroke: #A80036; stroke-width: 1.0;"/><polygon fill="none" points="217.786,106.659,216.176,85.53,230.611,101.043,217.786,106.659" style="stroke: #A80036; stroke-width: 1.0;"/><!--link TableRowCache to User.Table.Table3--><path d="M348.008,107.027 C328.751,134.822 304.781,169.42 289.196,191.9151 " fill="none" id="TableRowCache-User.Table.Table3" style="stroke: #A80036; stroke-width: 1.0;"/><polygon fill="none" points="342.414,102.809,359.558,90.356,353.922,110.782,342.414,102.809" style="stroke: #A80036; stroke-width: 1.0;"/><text fill="#000000" font-family="sans-serif" font-size="13" lengthAdjust="spacingAndGlyphs" textLength="25" x="339" y="134.9785">Trait</text><!--link TableSplit to User.Table.Table2--><path d="M196.468,105.188 C190.232,133.25 182.323,168.841 177.212,191.8369 " fill="none" id="TableSplit-User.Table.Table2" style="stroke: #A80036; stroke-width: 1.0;"/><polygon fill="none" points="189.664,103.536,200.836,85.53,203.331,106.573,189.664,103.536" style="stroke: #A80036; stroke-width: 1.0;"/><!--link Table to User.Table.Table1--><path d="M62.3968,105.602 C64.5926,133.599 67.3655,168.954 69.1603,191.8369 " fill="none" id="Table-User.Table.Table1" style="stroke: #A80036; stroke-width: 1.0;"/><polygon fill="none" points="55.4079,106.017,60.8225,85.53,69.365,104.922,55.4079,106.017" style="stroke: #A80036; stroke-width: 1.0;"/><!--
@startuml
title Table组件概况

class Table {
}

class TableSplit < extends Table > {
}

class TableRowCache << T, #ff0000, Trait >> {
}


namespace User.Table {
    class Table1 {
    }

    class Table2 {
    }

    class Table3 {
    }

    .TableSplit <|- - Table3
    .TableRowCache <|- - Table3 : Trait
    .TableSplit <|- - Table2
    .Table <|- - Table1
}


@enduml

PlantUML version 1.2018.02(Sat Mar 10 01:20:44 CST 2018)
(GPL source distribution)
Java Runtime: OpenJDK Runtime Environment
JVM: OpenJDK 64-Bit Server VM
Java Version: 1.8.0_162-8u162-b12-1~deb9u1-b12
Operating System: Linux
OS Version: 4.9.0-6-amd64
Default Encoding: UTF-8
Language: zh
Country: CN
--></g></svg>